<svg width="323" height="61" xmlns="http://www.w3.org/2000/svg"><g fill="none" fill-rule="evenodd"><g fill="#002B7F"><path d="M100.66 16.312c.063.265.137.786.219 1.565.082.78.123 1.347.123 1.703 0 .136-.032.305-.096.505a4.877 4.877 0 01-.998-.11c-.693-1.065-1.181-1.735-1.463-2.01-.53-.51-1.208-.942-2.037-1.298-.611-.264-1.312-.396-2.105-.396-1.523 0-2.863.683-4.02 2.049-1.158 1.366-1.736 3.397-1.736 6.093 0 1.265.225 2.495.676 3.688.452 1.192 1.128 2.128 2.03 2.807.903.678 1.965 1.017 3.186 1.017.593 0 1.22-.077 1.887-.231.337-.073.61-.218.82-.436.146-.145.242-.363.287-.653.073-.526.11-1.275.11-2.246 0-.944-.014-1.593-.041-1.947-.064-.136-.126-.225-.185-.265-.06-.041-.244-.107-.553-.198l-1.217-.326c-.265-.064-.43-.142-.492-.233a1.815 1.815 0 01-.028-.26c0-.127.032-.305.096-.533.164-.055.278-.082.342-.082.993 0 1.854.033 2.584.099.255.016.533.024.834.024l2.16-.027.916-.028c.109-.008.414 0 .916.028.009.237.014.437.014.6a.788.788 0 01-.096.343c-.155.093-.42.209-.793.348-.374.139-.584.232-.63.279-.072.072-.122.187-.15.34-.027.156-.04.697-.04 1.625 0 1.074-.005 1.716-.014 1.925a41.38 41.38 0 00-.055 1.147c0 .336-.046.546-.137.627-.255.255-1.045.544-2.372.867-1.326.323-2.87.485-4.628.485-1.23 0-2.3-.098-3.206-.294-.907-.196-1.68-.486-2.317-.868a8.533 8.533 0 01-2.201-1.86 7.625 7.625 0 01-1.367-2.365 10.848 10.848 0 01-.63-3.596c0-1.34.31-2.697.93-4.074a8.853 8.853 0 011.92-2.686c.826-.798 1.858-1.434 3.098-1.908 1.239-.473 2.588-.711 4.047-.711.182 0 .478.023.889.069 1.11 0 2.15.139 3.117.417.966.278 1.768.608 2.406.99M112.5 25.034a4.017 4.017 0 00-.301-1.47 2.32 2.32 0 00-.888-1.092c-.402-.26-.807-.39-1.217-.39-.611 0-1.162.268-1.655.806-.492.538-.77 1.267-.834 2.187l3.118.027c.2 0 .483-.013.847-.04.264-.026.45-.038.56-.038.083 0 .206.003.37.01m-7.943.58c.236-.776.446-1.292.629-1.547.51-.749 1.054-1.333 1.633-1.752.579-.42 1.1-.698 1.566-.836.6-.173 1.089-.259 1.463-.259.856 0 1.549.065 2.078.198.528.132.97.321 1.326.567.51.355.92.715 1.23 1.078.31.365.563.793.759 1.284.196.492.303 1.088.322 1.79l-1.518-.026c-.42 0-1.34-.04-2.762-.12a15.476 15.476 0 00-1.094-.068c-.064 0-.556.01-1.476.027h-1.176a2.408 2.408 0 00-.027.33c0 .483.059.993.177 1.527a4.88 4.88 0 00.534 1.413c.237.406.53.756.882 1.048.35.292.712.503 1.086.631l.793.26c.702 0 1.17-.022 1.409-.068a6.148 6.148 0 001.155-.349c.332-.14.736-.38 1.21-.718.328.238.6.451.82.643-.802.884-1.634 1.524-2.495 1.921-.861.396-1.825.594-2.892.594-.72 0-1.308-.064-1.763-.19a5.355 5.355 0 01-1.655-.754 5.033 5.033 0 01-1.271-1.259 5.81 5.81 0 01-.793-1.547c-.228-.693-.342-1.25-.342-1.67 0-.793.064-1.51.192-2.149M117.148 31.954a.78.78 0 01.301-.07c.537-.036.966-.132 1.285-.286.063-.028.102-.087.116-.178.014-.091.04-.92.075-2.484v-.792l.014-1.406-.014-1.461v-.327c0-.428-.098-.744-.294-.95-.196-.203-.709-.424-1.538-.661v-.56c.173-.046.378-.096.616-.151.838-.173 1.531-.42 2.078-.738.42-.246.834-.615 1.244-1.107h.752V21l.041 1.094-.014.506.027.246c.867-.684 1.59-1.135 2.167-1.353.58-.22 1.243-.33 1.99-.33.72 0 1.416.157 2.086.466.67.31 1.228.83 1.675 1.559.646-.625 1.19-1.064 1.626-1.317.301-.172.714-.324 1.238-.455a6.118 6.118 0 011.483-.197c1.267 0 2.27.382 3.007 1.147.738.774 1.107 1.82 1.107 3.14v2.17c0 .447-.013 1.216-.04 2.309v1.05c0 .183.054.36.163.534.356.152.661.249.916.294.183.027.356.089.52.187.018.167.041.306.068.417l-.013.277a3.567 3.567 0 01-.547.069c-.073 0-.294-.021-.663-.062a13.133 13.133 0 00-1.402-.061c-1.376 0-2.47.04-3.28.123a2.123 2.123 0 01-.097-.545l.014-.19c.118-.062.51-.22 1.176-.468.118-.118.186-.223.205-.314.045-.228.068-.715.068-1.461l-.068-3.85c-.009-.646-.06-1.18-.15-1.603-.092-.424-.226-.756-.404-.997a2.026 2.026 0 00-.718-.594 2.041 2.041 0 00-.943-.232c-.51 0-1.03.143-1.559.427-.528.285-.998.717-1.408 1.296l-.027.396.041 1.75-.027 1.436v1.367l-.014 1.217c0 .6.06.957.178 1.066.182.173.63.296 1.34.369l.423.139c.073.213.11.379.11.499 0 .065-.019.176-.055.333l-.396-.014h-.545l-.287-.013a23.451 23.451 0 00-2.006-.11l-1.46-.027c-.355 0-.97.04-1.843.123l-.244-.042-.028-.818c.274-.077.767-.142 1.478-.193.046-.01.105-.027.18-.055a.772.772 0 00.175-.3c.045-.182.068-.552.068-1.108l-.014-2.775.041-.738c0-1.422-.05-2.302-.15-2.64-.129-.437-.396-.794-.802-1.072-.407-.278-.894-.417-1.46-.417-.74 0-1.385.175-1.933.526-.548.35-.864.663-.946.937a3.327 3.327 0 00-.014.246l.028.136v.137c0 .082-.028.21-.082.383l.041 3.924.013 2.05c0 .074.014.192.041.356l.068.205c.253.08.47.137.651.173.334.07.587.15.76.239.025.154.04.263.04.327 0 .118-.037.287-.109.505a5.958 5.958 0 01-.315.014c-.1 0-.556-.037-1.367-.111l-1.49-.012c-.712 0-1.573.046-2.585.137l-.397-.014a17.893 17.893 0 01-.054-.505c0-.082.022-.201.068-.355M149.25 25.034a4.017 4.017 0 00-.301-1.47 2.32 2.32 0 00-.888-1.092c-.402-.26-.807-.39-1.217-.39-.611 0-1.162.268-1.655.806-.492.538-.77 1.267-.834 2.187l3.118.027c.2 0 .483-.013.847-.04.264-.026.45-.038.56-.038.083 0 .206.003.37.01m-7.943.58c.236-.776.446-1.292.629-1.547.51-.749 1.054-1.333 1.633-1.752.579-.42 1.1-.698 1.566-.836.6-.173 1.089-.259 1.463-.259.856 0 1.549.065 2.078.198.528.132.97.321 1.326.567.51.355.92.715 1.23 1.078.31.365.563.793.759 1.284.196.492.303 1.088.322 1.79l-1.518-.026c-.42 0-1.34-.04-2.762-.12a15.476 15.476 0 00-1.094-.068c-.064 0-.556.01-1.476.027h-1.176a2.408 2.408 0 00-.027.33c0 .483.059.993.177 1.527a4.88 4.88 0 00.534 1.413c.237.406.53.756.882 1.048.35.292.712.503 1.086.631l.793.26c.702 0 1.17-.022 1.409-.068a6.148 6.148 0 001.155-.349c.332-.14.736-.38 1.21-.718.328.238.6.451.82.643-.802.884-1.634 1.524-2.495 1.921-.861.396-1.825.594-2.892.594-.72 0-1.308-.064-1.763-.19a5.355 5.355 0 01-1.655-.754 5.033 5.033 0 01-1.271-1.259 5.81 5.81 0 01-.793-1.547c-.228-.693-.342-1.25-.342-1.67 0-.793.064-1.51.192-2.149M162.375 25.034a4.017 4.017 0 00-.301-1.47 2.32 2.32 0 00-.888-1.092c-.402-.26-.807-.39-1.217-.39-.611 0-1.162.268-1.655.806-.492.538-.77 1.267-.834 2.187l3.118.027c.2 0 .483-.013.847-.04.264-.026.45-.038.56-.038.083 0 .206.003.37.01m-7.943.58c.236-.776.446-1.292.629-1.547.51-.749 1.054-1.333 1.633-1.752.579-.42 1.1-.698 1.566-.836.6-.173 1.089-.259 1.463-.259.856 0 1.549.065 2.078.198.528.132.97.321 1.326.567.51.355.92.715 1.23 1.078.31.365.563.793.759 1.284.196.492.303 1.088.322 1.79l-1.518-.026c-.42 0-1.34-.04-2.762-.12a15.476 15.476 0 00-1.094-.068c-.064 0-.556.01-1.476.027h-1.176a2.408 2.408 0 00-.027.33c0 .483.059.993.177 1.527a4.88 4.88 0 00.534 1.413c.237.406.53.756.882 1.048.35.292.712.503 1.086.631l.793.26c.702 0 1.17-.022 1.409-.068a6.148 6.148 0 001.155-.349c.332-.14.736-.38 1.21-.718.328.238.6.451.82.643-.802.884-1.634 1.524-2.495 1.921-.861.396-1.825.594-2.892.594-.72 0-1.308-.064-1.763-.19a5.355 5.355 0 01-1.655-.754 5.033 5.033 0 01-1.271-1.259 5.81 5.81 0 01-.793-1.547c-.228-.693-.342-1.25-.342-1.67 0-.793.064-1.51.192-2.149M166.941 32.182c.237-.109.456-.182.656-.219.501-.082.793-.15.875-.205a.612.612 0 00.274-.302c.054-.182.082-.584.082-1.204v-1.19l.013-.973-.04-1.438v-.862c0-.575-.047-1.045-.137-1.41-.037-.137-.15-.274-.342-.41-.256-.183-.689-.36-1.299-.535l-.014-.656c.12-.036.226-.06.322-.075.095-.014.462-.103 1.1-.267.501-.182.825-.309.971-.382.045-.028.118-.069.22-.123.108-.09.231-.183.368-.274.273-.19.601-.524.984-.998l.738-.055-.027 1.545a3.41 3.41 0 00-.027.37c0 .073.01.283.027.63.756-.657 1.443-1.113 2.06-1.369.811-.337 1.58-.506 2.31-.506.852 0 1.604.213 2.251.637.644.425 1.068.916 1.267 1.473.201.557.301 1.68.301 3.37l-.055 4.465c0 .21.038.383.11.521.092.062.342.126.752.192l.67.13a.733.733 0 01.123.43c0 .108-.004.256-.014.444l-2.68-.19-.793.026h-.629l-1.804.123h-.465a4.353 4.353 0 01-.014-.264c0-.159.01-.33.028-.516.13-.027.447-.073.957-.137.136-.018.287-.05.451-.096.183-.073.287-.146.314-.219.074-.155.11-.45.11-.89 0-.766-.004-1.355-.014-1.766l.014-1.588c0-1.925-.123-3.126-.368-3.6-.345-.685-.863-1.027-1.554-1.027-.51 0-1.037.13-1.582.39-.546.26-1.11.655-1.69 1.185l-.029.232.028.861-.028.916.055 2.188-.027.342c0 1.486.06 2.325.18 2.516.12.192.573.405 1.364.64.028.155.041.268.041.341 0 .11-.03.28-.095.506a23.41 23.41 0 01-.713.014c-.192 0-.493-.03-.905-.093l-1.465-.03c-.73 0-1.786.032-3.165.095a.73.73 0 01-.055-.282c0-.072.005-.216.014-.43M182.65 22.5c1.075-.455 1.853-.901 2.33-1.338.48-.437.992-1.147 1.539-2.13h.766c.082.238.123.488.123.752 0 .474-.005.843-.014 1.108l-.041.806c0 .046.005.151.014.315l.314.013c.046 0 .474-.018 1.285-.054.064 0 .406-.009 1.026-.028.054.244.082.461.082.65 0 .208-.032.451-.096.731a4.131 4.131 0 01-.683.082c-.074 0-.22-.018-.438-.054h-.711l-.246-.014-.656.041-.028 5.223c-.008 1.011.012 1.643.062 1.893.05.251.157.49.32.718.21.1.444.15.698.15.247 0 .429-.022.547-.068.119-.046.32-.177.602-.396.055-.045.142-.109.26-.191.218.173.396.346.533.519l.055.164c-.32.501-.768.895-1.347 1.182a4.115 4.115 0 01-1.853.431c-.847 0-1.536-.269-2.064-.805-.528-.537-.793-1.37-.793-2.499l.055-2.403v-3.891l-.424-.027-.985.027-.177-.068a.414.414 0 01-.082-.23c0-.054.008-.257.027-.609M199.712 25.034a4.017 4.017 0 00-.3-1.47 2.314 2.314 0 00-.889-1.092c-.402-.26-.807-.39-1.217-.39-.61 0-1.162.268-1.655.806-.492.538-.77 1.267-.834 2.187l3.118.027c.2 0 .483-.013.847-.04.265-.026.451-.038.561-.038.082 0 .205.003.37.01m-7.944.58c.237-.776.446-1.292.63-1.547.51-.749 1.053-1.333 1.632-1.752.58-.42 1.101-.698 1.566-.836.601-.173 1.09-.259 1.463-.259.856 0 1.55.065 2.078.198.528.132.97.321 1.326.567.511.355.921.715 1.23 1.078.31.365.563.793.76 1.284.196.492.302 1.088.321 1.79l-1.518-.026c-.419 0-1.34-.04-2.762-.12a15.442 15.442 0 00-1.094-.068c-.063 0-.555.01-1.476.027h-1.176a2.408 2.408 0 00-.027.33c0 .483.06.993.177 1.527a4.88 4.88 0 00.534 1.413c.237.406.531.756.882 1.048.35.292.712.503 1.086.631l.793.26c.703 0 1.171-.022 1.41-.068a6.148 6.148 0 001.154-.349c.333-.14.736-.38 1.21-.718.328.238.601.451.82.643-.802.884-1.634 1.524-2.495 1.921-.86.396-1.825.594-2.892.594-.719 0-1.307-.064-1.763-.19a5.355 5.355 0 01-1.655-.754 5.033 5.033 0 01-1.27-1.259 5.81 5.81 0 01-.794-1.547c-.228-.693-.342-1.25-.342-1.67 0-.793.064-1.51.192-2.149M210.759 16.161l-.068-.848a.644.644 0 01.259-.082c.757.05 1.513.087 2.27.111.31.008.511.012.602.012.328 0 .71-.013 1.148-.04l1.777-.083a.25.25 0 01.123.151l-.109.63a5.922 5.922 0 01-.506.286c-.364.2-.547.364-.547.492 0 .12.046.27.137.451.055.11.128.296.219.561.155.446.592 1.531 1.312 3.254l3.541 8.257c.465-.865 1.19-2.324 2.174-4.375l-1.999-4.812a51.376 51.376 0 00-.97-2.229 6.188 6.188 0 01-.234-.547 7.08 7.08 0 01-.22-.403 1.076 1.076 0 00-.426-.437c-.192-.114-.65-.258-1.374-.43l.055-.82c.292 0 .692.012 1.203.04.738.054 1.212.082 1.422.082l1.914-.028 2.365-.136c.046.01.11.013.192.013l.013.465v.164a.636.636 0 01-.054.22 4.586 4.586 0 01-.739.122c-.237.02-.403.068-.499.15a.371.371 0 00-.143.288c0 .273.096.606.287.998.082.173.191.437.328.793.456 1.167.807 2.02 1.053 2.556l.957-1.982c.437-.91.725-1.58.861-2.01a.805.805 0 00.041-.232v-.082a1.116 1.116 0 00-.301-.247c-.227-.1-.615-.218-1.162-.355a4.136 4.136 0 01-.027-.397c0-.1.014-.25.041-.45.301 0 1.153.022 2.557.068.829.027 1.358.041 1.586.041.191 0 .36-.002.505-.007.146-.005.301-.007.465-.007l.028.11-.041.615-.028.068c-.984.283-1.572.488-1.763.615-.192.128-.374.338-.547.63-.456.801-1.299 2.48-2.53 5.03l.055.123.875 2.024 1.49 3.514c.156.346.265.601.328.765l1.723-4.512 2.406-6.138.383-1.149a.852.852 0 00.028-.218l-.041-.233c-.31-.1-.563-.175-.759-.225a1.798 1.798 0 01-.513-.212 9.276 9.276 0 01-.041-.56c0-.074.032-.169.096-.288l.218-.027 2.051.082 1.354-.082.287.041c.027.164.041.31.041.437a.73.73 0 01-.096.397c-.046.064-.137.118-.273.164-.374.182-.63.355-.767.52-.1.11-.241.414-.424.915a140.958 140.958 0 01-2.454 6.166c-.843 1.978-2.097 5.127-3.765 9.448l-1.366.013a5.044 5.044 0 00-.3-.834c-.265-.592-.419-.966-.465-1.12l-1.518-3.5a15.273 15.273 0 00-.602-1.3 5.538 5.538 0 01-.11-.19c-.018.045-.501.958-1.448 2.74-.947 1.782-1.641 3.174-2.08 4.177l-1.395.014c-.328-1.003-.97-2.543-1.927-4.622l-4.416-10.335c-.465-1.048-.798-1.673-.998-1.874-.074-.072-.21-.15-.411-.232a13.561 13.561 0 01-.314-.123M242.602 25.034a4.017 4.017 0 00-.301-1.47 2.314 2.314 0 00-.888-1.092c-.402-.26-.807-.39-1.217-.39-.611 0-1.162.268-1.655.806-.492.538-.77 1.267-.834 2.187l3.118.027c.2 0 .483-.013.847-.04.265-.026.45-.038.56-.038.083 0 .206.003.37.01m-7.943.58c.237-.776.446-1.292.629-1.547.51-.749 1.054-1.333 1.633-1.752.579-.42 1.1-.698 1.566-.836.6-.173 1.089-.259 1.463-.259.856 0 1.549.065 2.078.198.528.132.97.321 1.326.567.51.355.92.715 1.23 1.078.31.365.563.793.759 1.284.197.492.303 1.088.322 1.79l-1.518-.026c-.42 0-1.34-.04-2.762-.12a15.442 15.442 0 00-1.094-.068c-.063 0-.555.01-1.476.027h-1.176a2.408 2.408 0 00-.027.33c0 .483.059.993.177 1.527a4.88 4.88 0 00.534 1.413c.237.406.53.756.882 1.048.35.292.712.503 1.086.631l.793.26c.703 0 1.17-.022 1.409-.068a6.148 6.148 0 001.155-.349c.333-.14.736-.38 1.21-.718.328.238.6.451.82.643-.802.884-1.634 1.524-2.495 1.921-.861.396-1.825.594-2.892.594-.72 0-1.307-.064-1.763-.19a5.355 5.355 0 01-1.655-.754 5.033 5.033 0 01-1.271-1.259 5.81 5.81 0 01-.793-1.547c-.228-.693-.342-1.25-.342-1.67 0-.793.064-1.51.192-2.149M255.727 25.034a4.017 4.017 0 00-.301-1.47 2.314 2.314 0 00-.888-1.092c-.402-.26-.807-.39-1.217-.39-.611 0-1.162.268-1.655.806-.492.538-.77 1.267-.834 2.187l3.118.027c.2 0 .483-.013.847-.04.265-.026.45-.038.56-.038.083 0 .206.003.37.01m-7.943.58c.237-.776.446-1.292.629-1.547.51-.749 1.054-1.333 1.633-1.752.579-.42 1.1-.698 1.566-.836.6-.173 1.089-.259 1.463-.259.856 0 1.549.065 2.078.198.528.132.97.321 1.326.567.51.355.92.715 1.23 1.078.31.365.563.793.759 1.284.197.492.303 1.088.322 1.79l-1.518-.026c-.42 0-1.34-.04-2.762-.12a15.442 15.442 0 00-1.094-.068c-.063 0-.555.01-1.476.027h-1.176a2.408 2.408 0 00-.027.33c0 .483.059.993.177 1.527a4.88 4.88 0 00.534 1.413c.237.406.53.756.882 1.048.35.292.712.503 1.086.631l.793.26c.703 0 1.17-.022 1.409-.068a6.148 6.148 0 001.155-.349c.333-.14.736-.38 1.21-.718.328.238.6.451.82.643-.802.884-1.634 1.524-2.495 1.921-.861.396-1.825.594-2.892.594-.72 0-1.307-.064-1.763-.19a5.355 5.355 0 01-1.655-.754 5.033 5.033 0 01-1.271-1.259 5.81 5.81 0 01-.793-1.547c-.228-.693-.342-1.25-.342-1.67 0-.793.064-1.51.192-2.149M260.977 29.04c.273-.055.474-.082.602-.082.063 0 .159.005.287.014l.123.136c.492.867.815 1.39.97 1.573.32.374.634.674.944.902.21.146.538.296.984.451.3.11.62.164.957.164.574 0 1.067-.184 1.477-.554.41-.369.615-.767.615-1.196a1.2 1.2 0 00-.232-.745c-.156-.205-.465-.408-.93-.608-.228-.1-.8-.264-1.716-.493-.916-.227-1.47-.377-1.661-.45a3.739 3.739 0 01-1.142-.684 3.022 3.022 0 01-.758-.985c-.238-.519-.356-.965-.356-1.339 0-.693.1-1.26.3-1.703.2-.442.484-.83.849-1.169.264-.254.663-.487 1.196-.697a4.659 4.659 0 011.716-.314c.866 0 1.627.06 2.283.177.656.12 1.212.297 1.668.534.054.21.132.693.232 1.45.1.756.15 1.202.15 1.34a.593.593 0 01-.04.204 2.085 2.085 0 01-.588.11c-.091 0-.224-.01-.397-.028a9.32 9.32 0 01-.328-.574c-.437-.81-.887-1.383-1.347-1.716a2.645 2.645 0 00-1.592-.499c-.63 0-1.158.182-1.586.547-.31.264-.465.624-.465 1.08 0 .3.162.606.485.916.315.32.869.56 1.664.724 1.197.265 2.078.53 2.645.793.82.383 1.399.834 1.733 1.354.333.52.5 1.121.5 1.805 0 1.057-.398 1.94-1.196 2.645-.798.707-1.962 1.06-3.493 1.06-.2 0-.725-.046-1.573-.137a10.188 10.188 0 01-1.353-.274c-.128-.036-.46-.168-.998-.396a.5.5 0 01-.212-.198c-.041-.077-.103-.458-.185-1.142-.145-1.112-.223-1.777-.232-1.996M276.527 30.038c.036.11.059.191.068.246.1.42.228.716.383.89.284.327.609.546.974.655.548.155 1.027.232 1.438.232.475 0 .939-.1 1.39-.3.452-.2.815-.47 1.09-.807.036-.045.092-.109.164-.19.063-.147.114-.256.15-.33.364-.71.545-1.467.545-2.269 0-1.477-.438-2.72-1.315-3.732-.613-.72-1.48-1.08-2.604-1.08-.667 0-1.425.173-2.274.52-.02.354-.028 1.352-.028 2.993l.028 2.64c0 .063-.003.24-.01.532zm-5.173 9.775v-.615c.164-.1.282-.168.356-.205l1.052-.383c.438-.172.684-.309.739-.408.145-.274.21-.756.19-1.45l-.095-5.436-.136-6.762c-.028-.492-.132-.842-.315-1.052-.182-.209-.665-.428-1.45-.655l-.013-.71c.894-.174 1.646-.389 2.256-.644.446-.182 1.053-.528 1.818-1.039l.698-.027.013.382-.013 1.477c0 .055.005.191.013.41.793-.483 1.445-.802 1.956-.957.747-.219 1.572-.328 2.474-.328.93 0 1.755.237 2.475.711.054.037.132.087.232.15.456.328.788.643.998.944.456.647.784 1.285.985 1.914.155.474.232 1.066.232 1.777 0 .948-.123 1.75-.37 2.406-.245.657-.67 1.318-1.271 1.983-.601.665-1.246 1.14-1.934 1.422a5.662 5.662 0 01-2.167.424c-.747 0-1.28-.046-1.6-.137a8.366 8.366 0 01-1.818-.766 1.886 1.886 0 00-.041.301l.04.37c.01.1.015.222.015.368 0 .064-.01.424-.028 1.08l.055 2.488c0 .055-.01.238-.027.547v.15c0 .338.023.584.07.74a.89.89 0 00.244.3c.09.037.178.078.26.122.282.055.53.11.745.165.214.054.439.101.677.136a.611.611 0 01.123.397c0 .101-.005.246-.014.437h-.246c-.53 0-.901-.008-1.11-.027l-2.07-.178h-.505l-.48-.014-.48.042-.74.041c-.272.01-.574.033-.902.068a7.194 7.194 0 01-.713.055l-.178-.014z"/></g><path stroke="#002B7F" stroke-width=".916" d="M84.588 51.427H285.49"/><path fill="#002B7F" d="M58.197 9.664h14.29V7.606h-14.29zM58.197 13.865h14.29v-2.058h-14.29zM58.197 18.066h14.29v-2.058h-14.29zM58.197 22.267h14.29v-2.058h-14.29zM58.197 26.469h14.29v-2.058h-14.29zM58.197 30.669h14.29v-2.058h-14.29zM72.487 34.872h-14.29v-2.06h14.29v1.03z"/><path d="M70.638 41.215c-.15.154-.304.302-.459.44-1.193 1.06-2.465 1.618-2.779 1.618" fill="#000"/><path d="M58.198 41.215v2.058H67.4c.314 0 1.586-.558 2.778-1.619.156-.137.31-.285.46-.439H58.196zM58.198 37.013v2.06h13.879c.256-.623.41-1.31.41-2.06h-14.29zM27.412 9.664h14.29V7.606h-14.29zM27.412 13.865h14.29v-2.058h-14.29zM27.412 18.066h14.29v-2.058h-14.29zM27.412 22.267h14.29v-2.058h-14.29zM27.412 26.469h14.29v-2.058h-14.29zM27.412 30.669h14.29v-2.058h-14.29zM27.412 34.872h14.29v-2.06h-14.29v1.03z" fill="#002B7F"/><path d="M29.261 41.215c.15.154.304.302.458.44 1.194 1.06 2.465 1.618 2.78 1.618" fill="#000"/><path d="M41.702 41.215v2.058H32.5c-.315 0-1.586-.558-2.779-1.619a8.544 8.544 0 01-.459-.439H41.702zM41.702 37.013v2.06H27.821a5.388 5.388 0 01-.409-2.06h14.29z" fill="#002B7F"/><path d="M49.967 46.815c.258-1.39 2.43-3.987 6.468-3.987V8.044H43.473v34.784c4.036 0 6.208 2.595 6.467 3.987l.013.05.014-.05z" stroke="#002B7F" stroke-width=".914"/><path d="M27.412 51.546c2.525-1.91 5.013-2.366 7.492-2.366 2.7 0 3.691.218 7.547 2.183 3.856 1.966 5.992 1.913 7.458 1.913 1.466 0 3.548-.074 7.458-1.962 4.023-1.945 5.196-2.134 7.725-2.134 2.478 0 4.87.456 7.363 2.366" stroke="#002B7F" stroke-width=".915"/></g></svg>